<svg xmlns="http://www.w3.org/2000/svg" viewBox="0 0 900 260">
 <g fill="none" stroke-linecap="round" stroke-linejoin="round">
  <path d="M75 196c25-71 96-120 171-120 54 0 110 25 145 66-42-8-81-2-111 19-17 12-27 27-31 43H75z" fill="#0c2450" stroke="#d4a72c" stroke-width="8"/>
  <path d="M94 190h297" stroke="#2f66d0" stroke-width="14"/>
  <path d="M447 59c43 0 78 31 78 70 0 20-8 38-22 51l-31 28-30-29c-14-13-22-31-22-50 0-39 35-70 77-70z" fill="#111" stroke="#d4a72c" stroke-width="8"/>
  <path d="M425 112c20 2 38 11 52 24m-43 23c19-2 37 3 54 14m-2-74c-10 22-12 44-6 67" stroke="#2f66d0" stroke-width="9"/>
  <path d="M616 71h162l-16 77H635z" fill="#0b0b0b" stroke="#d4a72c" stroke-width="8"/>
  <path d="M632 149h132c25 0 45 20 45 45H588c0-25 20-45 44-45z" fill="#1f55b6" stroke="#d4a72c" stroke-width="8"/>
  <text x="692" y="128" text-anchor="middle" font-size="58" font-family="Georgia,serif" font-weight="700" fill="#d4a72c">SR</text>
 </g>
</svg>
