<svg xmlns="http://www.w3.org/2000/svg" viewBox="0 0 500 400">
 <path d="M65 255c69-161 214-213 340-143-37 9-63 28-81 57 49 6 85 28 111 66-51-13-96-7-136 18 32 21 52 48 60 83-66-39-138-52-218-26-25 8-50 19-76 34 14-35 14-64 0-89z" fill="#111" stroke="#d4a72c" stroke-width="10"/>
 <path d="M197 158c59-26 112-15 160 31-48-3-82 6-103 28 34 7 63 24 87 51-47-10-88-8-123 8-42 20-78 49-109 88 9-96 38-165 88-206z" fill="#1f55b6" opacity=".75"/>
 <path d="M260 183l187 62-192 18z" fill="#d4a72c" stroke="#0b0b0b" stroke-width="8"/>
 <circle cx="250" cy="151" r="16" fill="#f5c84c"/><circle cx="255" cy="151" r="6" fill="#000"/>
</svg>
